<svg width="60" height="60" viewBox="0 0 60 60" fill="none" xmlns="http://www.w3.org/2000/svg">
<circle cx="30" cy="30" r="30" fill="#F5EBFE"/>
<path d="M22.625 10.375C22.625 10.0103 22.7699 9.66059 23.0277 9.40273C23.2856 9.14487 23.6353 9 24 9H35C35.3647 9 35.7144 9.14487 35.9723 9.40273C36.2301 9.66059 36.375 10.0103 36.375 10.375C36.375 10.7397 36.2301 11.0894 35.9723 11.3473C35.7144 11.6051 35.3647 11.75 35 11.75H24C23.6353 11.75 23.2856 11.6051 23.0277 11.3473C22.7699 11.0894 22.625 10.7397 22.625 10.375ZM29.5 20C29.1353 20 28.7856 20.1449 28.5277 20.4027C28.2699 20.6606 28.125 21.0103 28.125 21.375V32.375C28.125 32.7397 28.2699 33.0894 28.5277 33.3473C28.7856 33.6051 29.1353 33.75 29.5 33.75C29.8647 33.75 30.2144 33.6051 30.4723 33.3473C30.7301 33.0894 30.875 32.7397 30.875 32.375V21.375C30.875 21.0103 30.7301 20.6606 30.4723 20.4027C30.2144 20.1449 29.8647 20 29.5 20ZM46 31C46 35.3761 44.2616 39.5729 41.1673 42.6673C38.0729 45.7616 33.8761 47.5 29.5 47.5C25.1239 47.5 20.9271 45.7616 17.8327 42.6673C14.7384 39.5729 13 35.3761 13 31C13 26.6239 14.7384 22.4271 17.8327 19.3327C20.9271 16.2384 25.1239 14.5 29.5 14.5C33.8761 14.5 38.0729 16.2384 41.1673 19.3327C44.2616 22.4271 46 26.6239 46 31ZM43.25 31C43.25 27.3533 41.8013 23.8559 39.2227 21.2773C36.6441 18.6987 33.1467 17.25 29.5 17.25C25.8533 17.25 22.3559 18.6987 19.7773 21.2773C17.1987 23.8559 15.75 27.3533 15.75 31C15.75 34.6467 17.1987 38.1441 19.7773 40.7227C22.3559 43.3013 25.8533 44.75 29.5 44.75C33.1467 44.75 36.6441 43.3013 39.2227 40.7227C41.8013 38.1441 43.25 34.6467 43.25 31ZM43.1208 13.5155C42.9939 13.3842 42.8422 13.2794 42.6744 13.2074C42.5067 13.1353 42.3263 13.0974 42.1437 13.0958C41.9611 13.0942 41.78 13.129 41.6111 13.1981C41.4421 13.2673 41.2886 13.3694 41.1595 13.4985C41.0304 13.6276 40.9283 13.7811 40.8591 13.9501C40.79 14.119 40.7552 14.3001 40.7568 14.4827C40.7584 14.6652 40.7963 14.8457 40.8684 15.0134C40.9404 15.1812 41.0452 15.3329 41.1765 15.4598L45.0348 19.318C45.1616 19.4493 45.3133 19.5541 45.4811 19.6261C45.6488 19.6982 45.8293 19.7361 46.0118 19.7377C46.1944 19.7393 46.3755 19.7045 46.5444 19.6354C46.7134 19.5662 46.8669 19.4641 46.996 19.335C47.1251 19.2059 47.2272 19.0524 47.2964 18.8834C47.3655 18.7145 47.4003 18.5334 47.3987 18.3508C47.3971 18.1683 47.3592 17.9878 47.2871 17.8201C47.2151 17.6523 47.1103 17.5006 46.979 17.3738L43.1208 13.5155Z" fill="#181643"/>
</svg>
