<svg width="237" height="366" viewBox="0 0 237 366" fill="none" xmlns="http://www.w3.org/2000/svg">
<path opacity="0.5" d="M167.5 321.014C182.688 321.014 195 307.54 195 290.919C195 274.298 182.688 260.824 167.5 260.824C152.312 260.824 140 274.298 140 290.919C140 307.54 152.312 321.014 167.5 321.014Z" stroke="#F5EBFE" stroke-width="10" stroke-linecap="round" stroke-linejoin="round"/>
<path opacity="0.5" d="M74 215.124H170.5C207.227 215.124 237 248.809 237 290.361C237 331.911 207.227 365.599 170.5 365.599H141.47" stroke="#F5EBFE" stroke-width="10" stroke-linecap="round" stroke-linejoin="round"/>
<path opacity="0.5" d="M144 178.305L69.2447 178.305C50.4022 178.305 35.1271 195.53 35.1271 216.778C35.1271 238.026 50.4022 255.251 69.2447 255.251L100.099 255.251M26 0L26 30.3612C26 67.3431 52.4151 97.3224 84.9998 97.3224L108.499 97.3224C128.106 97.3224 144 115.361 144 137.613" stroke="#F5EBFE" stroke-width="10" stroke-linecap="round" stroke-linejoin="round"/>
<path opacity="0.5" d="M64.7394 294.263C28.9852 294.263 5.18934e-06 258.69 8.75796e-06 214.808C9.99711e-06 199.571 3.49489 185.335 9.55461 173.243M109 134.87L64.8961 134.87C50.7838 134.87 37.7247 140.341 27.0849 149.629" stroke="#F5EBFE" stroke-width="10" stroke-linecap="round" stroke-linejoin="round"/>
</svg>
