<svg width="694" height="788" viewBox="0 0 694 788" fill="none" xmlns="http://www.w3.org/2000/svg">
<path d="M689 597.403C689 618.438 672.106 635.49 651.266 635.49C630.425 635.49 613.531 618.438 613.531 597.403" stroke="white" stroke-width="10" stroke-linecap="round" stroke-linejoin="round"/>
<path d="M689 43.1767C662.902 43.1767 641.75 21.8616 641.75 -4.43167C641.75 -30.725 662.902 -52.04 689 -52.04" stroke="white" stroke-width="10" stroke-linecap="round" stroke-linejoin="round"/>
<path d="M7.8125 -13.3583C7.8125 8.43555 25.4414 26.1033 47.1875 26.1033C68.9336 26.1033 86.5625 8.43555 86.5625 -13.3583V-57.95" stroke="white" stroke-width="10" stroke-linecap="round" stroke-linejoin="round"/>
<path d="M689 244.773V134.244C689 112.599 671.368 95.0533 649.625 95.0533C627.882 95.0533 610.25 112.599 610.25 134.244V151.352" stroke="white" stroke-width="10" stroke-linecap="round" stroke-linejoin="round"/>
<path d="M80.6563 575.429H-37.0993C-66.7803 575.429 -90.8419 599.378 -90.8419 628.921C-90.8419 658.463 -66.7803 682.413 -37.0993 682.413H11.5022M-120.261 868.607H-127.281C-147.991 868.607 -164.781 851.784 -164.781 831.043C-164.781 810.293 -147.991 793.471 -127.281 793.471H-43.5569C-12.9556 793.471 11.8516 768.62 11.8516 737.962M-105.219 327.513V369.727C-105.219 421.147 -63.6096 462.83 -12.2818 462.83H24.735C55.6193 462.83 80.6563 487.911 80.6563 518.85" stroke="white" stroke-width="10" stroke-linecap="round" stroke-linejoin="round"/>
<path d="M24.875 225.73C39.3725 225.73 51.125 213.97 51.125 199.463C51.125 184.957 39.3725 173.197 24.875 173.197C10.3775 173.197 -1.375 184.957 -1.375 199.463C-1.375 213.97 10.3775 225.73 24.875 225.73Z" stroke="white" stroke-width="10" stroke-linecap="round" stroke-linejoin="round"/>
<path d="M97.0625 764.197C118.084 764.197 135.125 747.292 135.125 726.438C135.125 705.585 118.084 688.68 97.0625 688.68C76.0412 688.68 59 705.585 59 726.438C59 747.292 76.0412 764.197 97.0625 764.197Z" stroke="white" stroke-width="10" stroke-linecap="round" stroke-linejoin="round"/>
<path d="M499.482 745.454C485.473 797.865 515.777 851.542 567.165 865.348C618.552 879.147 671.572 847.849 685.581 795.438C699.589 743.026 669.285 689.352 617.898 675.547" stroke="white" stroke-width="10" stroke-linecap="round" stroke-linejoin="round"/>
<path d="M-44.7989 737.93C-100.552 737.93 -145.75 688.394 -145.75 627.289C-145.75 606.072 -140.3 586.248 -130.851 569.41M24.2188 515.977H-44.5546C-66.5605 515.977 -86.9242 523.595 -103.515 536.528" stroke="white" stroke-width="10" stroke-linecap="round" stroke-linejoin="round"/>
<path d="M598.43 512.693C598.43 534.816 616.064 552.75 637.813 552.75C659.561 552.75 677.188 534.816 677.188 512.693C677.188 490.571 659.561 472.637 637.813 472.637H505.906" stroke="white" stroke-width="10" stroke-linecap="round" stroke-linejoin="round"/>
<path d="M272.938 33.1893C249.742 33.1893 230.938 51.7418 230.938 74.628C230.938 97.5141 249.742 116.067 272.938 116.067C296.133 116.067 314.938 97.5141 314.938 74.628V-58.6067" stroke="white" stroke-width="10" stroke-linecap="round" stroke-linejoin="round"/>
<path d="M239.415 830.52C239.415 809.485 256.322 792.433 277.176 792.433C298.032 792.433 314.938 809.485 314.938 830.52C314.938 851.555 298.032 868.607 277.176 868.607H217.156" stroke="white" stroke-width="10" stroke-linecap="round" stroke-linejoin="round"/>
<path d="M353.984 310.819C374.825 310.819 391.719 327.639 391.719 348.388C391.719 369.137 374.825 385.957 353.984 385.957C333.144 385.957 316.25 369.137 316.25 348.388V208" stroke="white" stroke-width="10" stroke-linecap="round" stroke-linejoin="round"/>
<path d="M90.9619 200.12C90.9619 162.766 61.1831 132.483 24.4497 132.483C-12.2837 132.483 -42.0625 162.766 -42.0625 200.12C-42.0625 237.474 -12.2837 267.757 24.4497 267.757H198.781" stroke="white" stroke-width="10" stroke-linecap="round" stroke-linejoin="round"/>
<path d="M622.485 418.79C659.225 418.79 689 388.508 689 351.153C689 313.799 659.225 283.517 622.485 283.517H448.156" stroke="white" stroke-width="10" stroke-linecap="round" stroke-linejoin="round"/>
<path fill-rule="evenodd" clip-rule="evenodd" d="M365.469 56.6383C365.469 21.6408 393.516 -6.73001 428.115 -6.73001H492.478C527.08 -6.73001 555.125 21.6408 555.125 56.6383C555.125 91.6359 527.08 120.007 492.478 120.007H428.115C393.516 120.007 365.469 91.6359 365.469 56.6383Z" stroke="white" stroke-width="10" stroke-linecap="round" stroke-linejoin="round"/>
<path d="M182.375 463.772V405.109C182.375 388.366 196.037 374.793 212.891 374.793C229.744 374.793 243.406 388.366 243.406 405.109V522.434C243.406 539.177 229.744 552.75 212.891 552.75C196.037 552.75 182.375 539.177 182.375 522.434V508.261" stroke="white" stroke-width="10" stroke-linecap="round" stroke-linejoin="round"/>
<path d="M238.812 150.168V155.282C238.812 184.397 215.16 208 185.984 208C156.808 208 133.156 184.397 133.156 155.282V-5.23211C133.156 -34.3474 156.808 -57.95 185.984 -57.95C215.16 -57.95 238.812 -34.3474 238.812 -5.23211V-3.65844" stroke="white" stroke-width="10" stroke-linecap="round" stroke-linejoin="round"/>
<path d="M131.844 374.793V526.901C131.844 572.367 169.011 609.223 214.859 609.223C260.708 609.223 297.875 572.367 297.875 526.901V490.964" stroke="white" stroke-width="10" stroke-linecap="round" stroke-linejoin="round"/>
<path d="M-34.8438 632.207H101.526C153.426 632.207 195.5 674.543 195.5 726.767C195.5 778.987 153.426 821.327 101.526 821.327H60.5013" stroke="white" stroke-width="10" stroke-linecap="round" stroke-linejoin="round"/>
<path d="M23.5625 401.717H-8.71616C-30.3948 401.717 -47.9688 384.076 -47.9688 362.317C-47.9688 340.557 -30.3948 322.917 -8.71616 322.917H55.8412C77.5198 322.917 95.0938 340.557 95.0938 362.317V365.817C95.0938 385.644 79.081 401.717 59.3281 401.717" stroke="white" stroke-width="10" stroke-linecap="round" stroke-linejoin="round"/>
<path d="M353.984 251.34H390.853C415.613 251.34 435.688 232.377 435.688 208.985C435.688 185.593 415.613 166.63 390.853 166.63H317.115C292.354 166.63 272.281 185.593 272.281 208.985" stroke="white" stroke-width="10" stroke-linecap="round" stroke-linejoin="round"/>
<path d="M81.9688 74.6967H-6.41576C-62.3467 74.6967 -107.688 120.266 -107.688 176.48" stroke="white" stroke-width="10" stroke-linecap="round" stroke-linejoin="round"/>
<path d="M590.234 733.885C611.075 733.885 627.969 750.669 627.969 771.368C627.969 792.066 611.075 808.85 590.234 808.85C569.394 808.85 552.5 792.066 552.5 771.368V527.14" stroke="white" stroke-width="10" stroke-linecap="round" stroke-linejoin="round"/>
<path d="M307.719 758.287C307.719 719.845 338.462 688.68 376.385 688.68H497.375" stroke="white" stroke-width="10" stroke-linecap="round" stroke-linejoin="round"/>
<path d="M129.219 322.917H193.776C237.133 322.917 272.281 287.636 272.281 244.117" stroke="white" stroke-width="10" stroke-linecap="round" stroke-linejoin="round"/>
<path d="M505.906 528.453V563.753C505.906 599.382 477.03 628.267 441.405 628.267H391.062" stroke="white" stroke-width="10" stroke-linecap="round" stroke-linejoin="round"/>
<path d="M627.969 352.467H572.839C532.972 352.467 500.656 385.101 500.656 425.357" stroke="white" stroke-width="10" stroke-linecap="round" stroke-linejoin="round"/>
<path d="M353.328 433.237C353.328 438.288 353.328 501.884 353.328 533.05" stroke="white" stroke-width="10" stroke-linecap="round" stroke-linejoin="round"/>
<path d="M252.266 704.44C252.266 706.501 252.266 732.438 252.266 745.153" stroke="white" stroke-width="10" stroke-linecap="round" stroke-linejoin="round"/>
<path d="M448.156 326.857V420.32C448.156 435.027 436.15 446.939 421.339 446.939C406.528 446.939 394.521 458.861 394.521 473.567V479.09C394.521 493.797 406.528 505.719 421.339 505.719C436.15 505.719 448.156 517.641 448.156 532.348V538.462C448.156 556.546 433.393 571.206 415.181 571.206H398.097H373.067M265.062 658.473H282.634C318.945 658.473 348.38 629.055 348.38 592.766" stroke="white" stroke-width="10" stroke-linecap="round" stroke-linejoin="round"/>
<path d="M610.906 197.441V210.76C610.906 229.545 595.64 244.773 576.819 244.773C557.99 244.773 542.724 229.545 542.724 210.76V199.728C542.724 181.086 527.576 165.973 508.897 165.973C490.211 165.973 475.062 181.086 475.062 199.728V213.305" stroke="white" stroke-width="10" stroke-linecap="round" stroke-linejoin="round"/>
<path fill-rule="evenodd" clip-rule="evenodd" d="M353.656 785.845C353.656 759.385 375.105 737.93 401.562 737.93C428.018 737.93 449.469 759.385 449.469 785.845V820.692C449.469 847.152 428.018 868.607 401.562 868.607C375.105 868.607 353.656 847.152 353.656 820.692V785.845Z" stroke="white" stroke-width="10" stroke-linecap="round" stroke-linejoin="round"/>
</svg>
